<svg width="66" height="53" viewBox="0 0 66 53" fill="none" xmlns="http://www.w3.org/2000/svg">
<path fill-rule="evenodd" clip-rule="evenodd" d="M12.0468 3C8.73738 3 6.28858 5.94655 6.39824 9.142C6.50348 12.212 6.36675 16.188 5.38278 19.4305C4.39531 22.682 2.72645 24.7426 0 25.007V27.993C2.72645 28.258 4.39531 30.3175 5.38267 33.5695C6.36675 36.812 6.50336 40.788 6.39813 43.858C6.28847 47.053 8.73727 50 12.0472 50H45.9576C49.267 50 51.7154 47.0535 51.6057 43.858C51.5005 40.788 51.6372 36.812 52.6212 33.5695C53.6087 30.3175 55.2734 28.2572 58 27.993V25.007C55.2735 24.742 53.6088 22.6825 52.6212 19.4305C51.6371 16.1885 51.5005 12.212 51.6057 9.142C51.7154 5.94701 49.267 3 45.9576 3H12.0463H12.0468ZM39.3221 31.9316C39.3221 36.3316 36.0957 39.0001 30.7415 39.0001H21.6271C21.3664 39.0001 21.1163 38.8947 20.932 38.7072C20.7476 38.5196 20.644 38.2653 20.644 38.0001V15.0001C20.644 14.7348 20.7476 14.4805 20.932 14.2929C21.1163 14.1054 21.3664 14.0001 21.6271 14.0001H30.6896C35.1541 14.0001 38.0841 16.4601 38.0841 20.237C38.0841 22.888 36.113 25.2612 33.6019 25.677V25.8153C37.0203 26.1967 39.3221 28.6051 39.3221 31.9316ZM29.7477 17.17H24.5508V24.6372H28.9278C32.3116 24.6372 34.1773 23.2512 34.1773 20.7738C34.177 18.452 32.5729 17.17 29.7477 17.17ZM24.5508 27.6V35.829H29.9389C33.4619 35.829 35.328 34.391 35.328 31.6885C35.328 28.9861 33.4096 27.5996 29.7123 27.5996H24.5508V27.6Z" fill="#1E1E1E"/>
</svg>
