<svg width="34" height="33" viewBox="0 0 34 33" fill="none" xmlns="http://www.w3.org/2000/svg">
<path fill-rule="evenodd" clip-rule="evenodd" d="M17.4146 0.133301C8.31585 0.133301 0.941162 7.69589 0.941162 17.0265C0.941162 24.4872 5.66204 30.8187 12.2063 33.0588C13.0277 33.2161 13.3346 32.6885 13.3346 32.2442C13.3346 31.8369 13.3166 30.5132 13.3166 29.097C8.73107 30.1152 7.76523 27.1068 7.76523 27.1068C7.01603 25.1537 5.93284 24.6353 5.93284 24.6353C4.43443 23.5894 6.04116 23.6079 6.04116 23.6079C7.69302 23.7282 8.56859 25.3481 8.56859 25.3481C10.0399 27.9307 12.4229 27.1809 13.3617 26.7551C13.5061 25.6628 13.9394 24.9223 14.4088 24.4965C10.753 24.0707 6.89868 22.6174 6.89868 16.1471C6.89868 14.3051 7.53956 12.7962 8.59567 11.6114C8.42417 11.1856 7.86452 9.46388 8.75815 7.14049C8.75815 7.14049 10.1392 6.68692 13.2895 8.87147C14.6073 8.5012 16.0155 8.30682 17.4146 8.30682C18.8137 8.31607 20.2219 8.5012 21.5397 8.87147C24.681 6.68692 26.062 7.14049 26.062 7.14049C26.9557 9.46388 26.396 11.1856 26.2245 11.6114C27.2806 12.7962 27.9215 14.3051 27.9215 16.1471C27.9215 22.6359 24.0672 24.0614 20.4024 24.478C20.9891 25.0056 21.5217 26.0331 21.5217 27.6067C21.5217 29.8653 21.5036 31.6888 21.5036 32.2442C21.5036 32.6978 21.8015 33.2161 22.6319 33.0588C29.1762 30.8187 33.888 24.4965 33.888 17.0265C33.888 7.69589 26.5134 0.133301 17.4146 0.133301Z" fill="white"/>
<path d="M7.17856 24.3854C7.14245 24.4687 7.01608 24.4965 6.89873 24.4409C6.78139 24.3854 6.70917 24.2743 6.75431 24.191C6.79041 24.1077 6.91679 24.0799 7.03413 24.1355C7.15148 24.191 7.22369 24.3021 7.17856 24.3854Z" fill="white"/>
<path d="M7.84647 25.1537C7.76523 25.2277 7.61178 25.1907 7.51249 25.0796C7.40417 24.9593 7.38612 24.8019 7.46736 24.7279C7.5486 24.6538 7.69302 24.6908 7.80134 24.8019C7.90966 24.9222 7.92771 25.0796 7.84647 25.1537Z" fill="white"/>
<path d="M8.49644 26.1256C8.39714 26.1996 8.23467 26.1348 8.12635 25.9775C8.02706 25.8294 8.02706 25.6442 8.12635 25.5702C8.22564 25.4961 8.38812 25.5609 8.49644 25.709C8.60475 25.8664 8.60475 26.0515 8.49644 26.1256Z" fill="white"/>
<path d="M9.39002 27.0605C9.29975 27.1624 9.1102 27.1346 8.96577 26.9957C8.82135 26.8569 8.78524 26.6625 8.87551 26.5607C8.96577 26.4589 9.16436 26.4866 9.29975 26.6255C9.44418 26.7736 9.48029 26.968 9.39002 27.0605Z" fill="white"/>
<path d="M10.6176 27.6067C10.5815 27.7363 10.3919 27.8011 10.2024 27.7456C10.0128 27.69 9.89545 27.5327 9.93156 27.4031C9.96767 27.2735 10.1572 27.2087 10.3468 27.2642C10.5273 27.3198 10.6537 27.4771 10.6176 27.6067Z" fill="white"/>
<path d="M11.9626 27.7085C11.9716 27.8474 11.8092 27.9677 11.6106 27.9677C11.412 27.977 11.2585 27.8566 11.2495 27.7178C11.2495 27.579 11.403 27.4586 11.6015 27.4586C11.8001 27.4586 11.9626 27.5697 11.9626 27.7085Z" fill="white"/>
<path d="M13.2172 27.4956C13.2443 27.6344 13.1089 27.7733 12.9103 27.8103C12.7208 27.8473 12.5402 27.764 12.5222 27.6252C12.4951 27.4863 12.6395 27.3475 12.8291 27.3104C13.0187 27.2734 13.1902 27.3567 13.2172 27.4956Z" fill="white"/>
</svg>
