<svg width="62" height="62" viewBox="0 0 62 62" fill="none" xmlns="http://www.w3.org/2000/svg">
<path fill-rule="evenodd" clip-rule="evenodd" d="M30.7787 -0.138062C13.6223 -0.138062 -0.283325 14.1218 -0.283325 31.7154C-0.283325 45.7833 8.6183 57.7219 20.958 61.9457C22.5069 62.2424 23.0856 61.2476 23.0856 60.4098C23.0856 59.6418 23.0515 57.1459 23.0515 54.4754C14.4052 56.3954 12.584 50.7228 12.584 50.7228C11.1713 47.04 9.1289 46.0626 9.1289 46.0626C6.30353 44.0903 9.33315 44.1252 9.33315 44.1252C12.4479 44.3521 14.0988 47.4066 14.0988 47.4066C16.8731 52.2762 21.3665 50.8625 23.1366 50.0596C23.4089 48 24.2259 46.6037 25.111 45.8008C18.2177 44.9979 10.9501 42.2576 10.9501 30.0573C10.9501 26.584 12.1585 23.739 14.1499 21.5049C13.8265 20.702 12.7713 17.4555 14.4563 13.0746C14.4563 13.0746 17.0604 12.2194 23.0005 16.3385C25.4854 15.6403 28.1406 15.2738 30.7787 15.2738C33.4169 15.2913 36.0721 15.6403 38.557 16.3385C44.4801 12.2194 47.0842 13.0746 47.0842 13.0746C48.7692 17.4555 47.7139 20.702 47.3906 21.5049C49.3819 23.739 50.5904 26.584 50.5904 30.0573C50.5904 42.2926 43.3227 44.9805 36.4125 45.7659C37.5188 46.7608 38.523 48.6982 38.523 51.6653C38.523 55.9241 38.4889 59.3625 38.4889 60.4098C38.4889 61.265 39.0506 62.2424 40.6165 61.9457C52.9562 57.7219 61.8408 45.8008 61.8408 31.7154C61.8408 14.1218 47.9352 -0.138062 30.7787 -0.138062Z" fill="#0F1110"/>
<path d="M11.4775 45.5913C11.4095 45.7484 11.1712 45.8007 10.9499 45.696C10.7287 45.5913 10.5925 45.3818 10.6776 45.2248C10.7457 45.0677 10.984 45.0153 11.2052 45.12C11.4265 45.2248 11.5627 45.4342 11.4775 45.5913Z" fill="#0F1110"/>
<path d="M12.7372 47.0401C12.584 47.1797 12.2946 47.1099 12.1074 46.9004C11.9032 46.6735 11.8691 46.3768 12.0223 46.2372C12.1755 46.0976 12.4478 46.1674 12.6521 46.3768C12.8563 46.6037 12.8904 46.9004 12.7372 47.0401Z" fill="#0F1110"/>
<path d="M13.9626 48.8726C13.7754 49.0122 13.4691 48.89 13.2648 48.5933C13.0776 48.3141 13.0776 47.965 13.2648 47.8254C13.452 47.6857 13.7584 47.8079 13.9626 48.0872C14.1669 48.3839 14.1669 48.733 13.9626 48.8726Z" fill="#0F1110"/>
<path d="M15.6477 50.6356C15.4775 50.8276 15.12 50.7753 14.8477 50.5134C14.5754 50.2516 14.5073 49.8851 14.6775 49.6931C14.8477 49.5011 15.2222 49.5535 15.4775 49.8153C15.7498 50.0946 15.8179 50.4611 15.6477 50.6356Z" fill="#0F1110"/>
<path d="M17.9626 51.6653C17.8945 51.9096 17.537 52.0318 17.1796 51.9271C16.8222 51.8223 16.6009 51.5256 16.669 51.2813C16.7371 51.0369 17.0945 50.9147 17.4519 51.0195C17.7924 51.1242 18.0306 51.4209 17.9626 51.6653Z" fill="#0F1110"/>
<path d="M20.4985 51.8572C20.5156 52.119 20.2092 52.346 19.8347 52.346C19.4603 52.3634 19.171 52.1365 19.1539 51.8747C19.1539 51.6129 19.4433 51.386 19.8177 51.386C20.1922 51.386 20.4985 51.5954 20.4985 51.8572Z" fill="#0F1110"/>
<path d="M22.8642 51.4559C22.9153 51.7177 22.66 51.9795 22.2855 52.0493C21.9281 52.1191 21.5877 51.962 21.5537 51.7002C21.5026 51.4384 21.7749 51.1766 22.1323 51.1068C22.4898 51.037 22.8132 51.1941 22.8642 51.4559Z" fill="#0F1110"/>
</svg>
