<svg width="53" height="59" viewBox="0 0 53 59" fill="none" xmlns="http://www.w3.org/2000/svg">
<g clip-path="url(#clip0_1_138)">
<path d="M53 51.6168C53.0217 55.6676 49.773 58.966 45.7472 58.9879C45.4479 58.9903 45.1462 58.9733 44.8493 58.9369C41.1131 58.3811 38.3761 55.1118 38.4678 51.3159V7.67201C38.3785 3.8712 41.1227 0.601917 44.8614 0.0509688C48.8607 -0.419886 52.4835 2.45864 52.9517 6.48032C52.9855 6.77642 53.0024 7.07252 53 7.37106V51.6168Z" fill="#323232"/>
<path d="M7.26732 44.3841C11.2811 44.3841 14.5346 47.6558 14.5346 51.692C14.5346 55.7283 11.2811 59 7.26732 59C3.25352 59 0 55.7283 0 51.692C0 47.6558 3.25352 44.3841 7.26732 44.3841ZM26.3878 22.237C22.3547 22.4602 19.2267 25.8606 19.3208 29.9211V49.5489C19.3208 54.8764 21.6523 58.1093 25.0675 58.7986C29.0089 59.6019 32.8489 57.0413 33.6478 53.0779C33.7468 52.5925 33.7951 52.0998 33.7927 51.6047V29.5813C33.7999 25.5305 30.5416 22.2418 26.5133 22.2345C26.4722 22.2345 26.4288 22.2345 26.3878 22.237Z" fill="#252525"/>
</g>
<defs>
<clipPath id="clip0_1_138">
<rect width="53" height="59" fill="white"/>
</clipPath>
</defs>
</svg>
