<svg width="47" height="30" viewBox="0 0 47 30" fill="none" xmlns="http://www.w3.org/2000/svg">
<path d="M20.92 0.799998V19.48C20.92 22.6533 20.0533 25.08 18.32 26.76C16.6133 28.44 14.2533 29.28 11.24 29.28C8.04 29.28 5.48 28.3867 3.56 26.6C1.66667 24.8133 0.72 22.24 0.72 18.88H8.48C8.50667 21.0933 9.32 22.2 10.92 22.2C12.36 22.2 13.08 21.2933 13.08 19.48V0.799998H20.92ZM36.2394 29.28C32.9594 29.28 30.266 28.5067 28.1594 26.96C26.0527 25.3867 24.9194 23.1467 24.7594 20.24H33.1194C33.1994 21.2267 33.4927 21.9467 33.9994 22.4C34.506 22.8533 35.1594 23.08 35.9594 23.08C36.6794 23.08 37.266 22.9067 37.7194 22.56C38.1994 22.1867 38.4394 21.68 38.4394 21.04C38.4394 20.2133 38.0527 19.5733 37.2794 19.12C36.506 18.6667 35.2527 18.16 33.5194 17.6C31.6794 16.9867 30.186 16.4 29.0394 15.84C27.9194 15.2533 26.9327 14.4133 26.0794 13.32C25.2527 12.2 24.8394 10.7467 24.8394 8.96C24.8394 7.14667 25.2927 5.6 26.1994 4.32C27.106 3.01333 28.3594 2.02667 29.9594 1.36C31.5594 0.693332 33.3727 0.359999 35.3994 0.359999C38.6794 0.359999 41.2927 1.13333 43.2394 2.68C45.2127 4.2 46.266 6.34667 46.3994 9.12H37.8794C37.8527 8.26667 37.586 7.62667 37.0794 7.2C36.5994 6.77333 35.9727 6.56 35.1994 6.56C34.6127 6.56 34.1327 6.73333 33.7594 7.08C33.386 7.42667 33.1994 7.92 33.1994 8.56C33.1994 9.09333 33.3994 9.56 33.7994 9.96C34.226 10.3333 34.746 10.6667 35.3594 10.96C35.9727 11.2267 36.8794 11.5733 38.0794 12C39.866 12.6133 41.3327 13.2267 42.4794 13.84C43.6527 14.4267 44.6527 15.2667 45.4794 16.36C46.3327 17.4267 46.7594 18.7867 46.7594 20.44C46.7594 22.12 46.3327 23.6267 45.4794 24.96C44.6527 26.2933 43.4394 27.3467 41.8394 28.12C40.266 28.8933 38.3994 29.28 36.2394 29.28Z" fill="#1E1E1E"/>
</svg>
