<svg width="51" height="35" viewBox="0 0 51 35" fill="none" xmlns="http://www.w3.org/2000/svg">
<path d="M26.8255 3.00741L18.0051 17.58L27.4135 33.0358C27.4723 33.1535 27.5017 33.2713 27.4723 33.3891C27.4429 33.5068 27.3253 33.4185 27.1489 33.4479H20.416C19.9456 33.4479 19.6222 33.4185 19.4164 33.1241C18.799 31.8876 18.1521 30.6806 17.5347 29.4442C16.9173 28.2371 16.241 27.0007 15.5354 25.7348C14.8298 24.4689 14.1241 23.203 13.4185 21.9076H13.3597C12.7423 23.1735 12.0661 24.4394 11.3898 25.7053C10.7136 26.9712 10.0374 28.2371 9.39054 29.4736C8.71431 30.7101 8.03808 31.976 7.36185 33.183C7.24425 33.4774 7.00904 33.5068 6.68562 33.5068H0.217343C0.0997383 33.5068 0.0115342 33.5657 0.0115342 33.4185C-0.0178671 33.3007 0.0115344 33.183 0.070337 33.0947L9.21414 18.0805L0.305547 2.97797C0.217343 2.86022 0.187942 2.74246 0.246744 2.68358C0.305547 2.59526 0.423152 2.56582 0.540757 2.56582H7.21485C7.36185 2.56582 7.50886 2.59526 7.62647 2.6247C7.74407 2.68358 7.83227 2.7719 7.92048 2.88965C8.4791 4.15556 9.12593 5.42146 9.80216 6.68736C10.5078 7.95326 11.184 9.18972 11.9191 10.4262C12.6247 11.6626 13.2715 12.8991 13.8889 14.165H13.9477C14.5652 12.8697 15.212 11.6038 15.8588 10.3673C16.5057 9.13085 17.1819 7.89438 17.8581 6.65792C18.5343 5.42146 19.1812 4.15556 19.828 2.94853C19.8574 2.83078 19.9162 2.71302 20.0044 2.65414C20.122 2.59526 20.2396 2.56582 20.3866 2.59526H26.5903C26.7373 2.56582 26.8843 2.65414 26.9137 2.80134C26.9431 2.83078 26.8843 2.94853 26.8255 3.00741ZM40.4089 34.0662C38.2332 34.0956 36.0575 33.654 34.0876 32.7414C32.2353 31.8876 30.7065 30.4745 29.648 28.7376C28.5602 26.9418 28.031 24.7044 28.031 22.0254C28.0016 19.8469 28.5602 17.6978 29.648 15.8136C30.7653 13.9001 32.3823 12.3103 34.3228 11.2505C36.3809 10.1024 38.8506 9.543 41.7613 9.543C41.9084 9.543 42.1142 9.543 42.3788 9.57244C42.6434 9.60188 42.9374 9.60188 43.2902 9.63132V0.328411C43.2902 0.122334 43.3784 0.00457542 43.5842 0.00457542H49.5527C49.6997 -0.0248642 49.8173 0.0928944 49.8467 0.210653V28.296C49.8467 28.8259 49.8761 29.4147 49.9055 30.0624C49.9643 30.6806 49.9937 31.2694 50.0231 31.7699C50.0231 31.976 49.9349 32.1526 49.7291 32.2409C48.2002 32.8886 46.5832 33.3596 44.9367 33.654C43.4372 33.919 41.9378 34.0662 40.4089 34.0662ZM43.2902 28.1783V15.2248C43.0256 15.166 42.761 15.1071 42.4964 15.0776C42.173 15.0482 41.8496 15.0188 41.5261 15.0188C40.3795 15.0188 39.2328 15.2543 38.2038 15.7842C37.2042 16.2847 36.3515 17.0207 35.7047 17.9627C35.0579 18.9048 34.7344 20.1707 34.7344 21.7015C34.705 22.7319 34.8815 23.7623 35.2343 24.7338C35.5283 25.5287 35.9693 26.2352 36.5573 26.824C37.1159 27.3539 37.7922 27.7661 38.5566 28.0016C39.3504 28.2666 40.1737 28.3843 40.9969 28.3843C41.4379 28.3843 41.8496 28.3549 42.2318 28.3255C42.614 28.3549 42.9374 28.296 43.2902 28.1783Z" fill="#1E1E1E"/>
</svg>
