<svg width="42" height="36" viewBox="0 0 42 36" fill="none" xmlns="http://www.w3.org/2000/svg">
<path d="M21.0951 28.0693H9.33159L6.9283 35.5227C6.90144 35.6586 6.82492 35.7795 6.71375 35.8616C6.60258 35.9438 6.4648 35.9813 6.32748 35.9668H0.382489C0.0346435 35.9668 -0.0602228 35.7765 0.034644 35.3959L10.217 5.99457C10.3119 5.6774 10.4067 5.32852 10.5332 4.94792C10.6605 4.26817 10.724 3.57797 10.723 2.88634C10.7135 2.80691 10.7343 2.72681 10.7812 2.66212C10.8281 2.59742 10.8977 2.55289 10.976 2.53746H19.1661C19.4191 2.53746 19.5456 2.63261 19.5772 2.79119L31.1193 35.4593C31.2142 35.8082 31.1193 35.9668 30.8031 35.9668H24.1941C24.0823 35.9776 23.9703 35.9485 23.8778 35.8847C23.7852 35.8209 23.7181 35.7264 23.6881 35.6179L21.0951 28.0693ZM11.1657 21.6309H19.1977C19.008 20.9648 18.755 20.1719 18.4704 19.3473C18.1858 18.5226 17.9012 17.5711 17.6166 16.6196C17.332 15.6681 17.0158 14.6849 16.6996 13.7017C16.3834 12.7185 16.0988 11.7987 15.8458 10.8789C15.5928 9.95915 15.3714 9.16623 15.1501 8.40503H15.0868C14.8027 9.78738 14.4437 11.1532 14.0117 12.4965C13.5374 14.0189 13.063 15.6047 12.5571 17.1905C12.1144 18.8081 11.64 20.2988 11.1657 21.6309V21.6309ZM38.013 7.961C37.4939 7.97239 36.9778 7.88011 36.4946 7.68953C36.0114 7.49896 35.5709 7.21389 35.1986 6.85092C34.4741 6.05638 34.0882 5.00912 34.1235 3.93299C34.1048 3.40866 34.1965 2.88627 34.3927 2.39989C34.5888 1.91351 34.885 1.47406 35.2619 1.11021C36.0219 0.389655 37.0304 -0.00812179 38.0762 0.000125736C39.3095 0.000125736 40.2582 0.380725 40.9539 1.11021C41.6544 1.87925 42.0287 2.89176 41.9974 3.93299C42.0167 4.46886 41.9287 5.00317 41.7386 5.50435C41.5485 6.00553 41.2602 6.46341 40.8906 6.85092C40.518 7.23158 40.0683 7.52766 39.5719 7.71916C39.0755 7.91066 38.5439 7.99313 38.013 7.961V7.961ZM34.4713 35.491V11.0692C34.4713 10.7521 34.5978 10.6252 34.8824 10.6252H41.1436C41.4282 10.6252 41.5547 10.7838 41.5547 11.0692V35.491C41.5547 35.8399 41.4282 35.9985 41.1436 35.9985H34.9456C34.8792 36.004 34.8123 35.9944 34.7501 35.9703C34.6879 35.9463 34.6319 35.9085 34.5863 35.8597C34.5407 35.8109 34.5066 35.7524 34.4867 35.6885C34.4668 35.6247 34.4615 35.5572 34.4713 35.491V35.491Z" fill="#1E1E1E"/>
</svg>
