<svg width="51" height="38" viewBox="0 0 51 38" fill="none" xmlns="http://www.w3.org/2000/svg">
<path d="M0 36.8037V0.598148C0 0.351852 0.105616 0.211111 0.352055 0.211111C0.950548 0.211111 1.51384 0.211111 2.32356 0.175926C3.16849 0.140741 4.04863 0.14074 4.99918 0.105555C5.94973 0.0703701 6.97069 0.0703698 8.06206 0.0351846C9.15343 -5.37408e-07 10.2096 0 11.2658 0C14.1526 0 16.5466 0.351851 18.5181 1.09074C20.2784 1.68889 21.8978 2.67408 23.2356 3.97593C24.3622 5.10185 25.2423 6.47407 25.8056 7.98704C26.3337 9.46481 26.6153 10.9778 26.6153 12.5611C26.6153 15.587 25.9112 18.0852 24.503 20.0556C23.0948 22.0259 21.1233 23.5037 18.8349 24.3481C16.441 25.2278 13.8006 25.5444 10.9137 25.5444C10.0688 25.5444 9.50548 25.5444 9.15343 25.5093C8.80137 25.4741 8.30849 25.4741 7.63959 25.4741V36.7685C7.67479 37.0148 7.49877 37.2259 7.25233 37.2611H0.422466C0.140822 37.2611 0 37.1204 0 36.8037ZM7.6748 7.00185V18.8241C8.16767 18.8593 8.62534 18.8944 9.04781 18.8944H10.9137C12.2867 18.8944 13.6597 18.6833 14.9623 18.2611C16.0889 17.9444 17.0747 17.2759 17.8492 16.3963C18.5885 15.5167 18.9406 14.3204 18.9406 12.7722C18.9758 11.6815 18.6941 10.5907 18.1308 9.64074C17.5323 8.72593 16.6874 8.02222 15.6664 7.63518C14.3638 7.10741 12.9556 6.8963 11.5122 6.93148C10.5969 6.93148 9.78713 6.93148 9.11822 6.96667C8.41411 6.93148 7.92124 6.96667 7.6748 7.00185V7.00185ZM48.5836 16.6778C47.5274 16.1148 46.4008 15.7278 45.2038 15.4815C43.9012 15.2 42.5986 15.0241 41.2608 15.0241C40.5567 14.9889 39.8174 15.0944 39.1485 15.2704C38.6908 15.3759 38.3036 15.6222 38.0571 15.9741C37.8811 16.2556 37.7755 16.6074 37.7755 16.9241C37.7755 17.2407 37.9163 17.5574 38.1275 17.8389C38.4444 18.2259 38.8669 18.5426 39.3245 18.7889C40.1343 19.2111 40.9792 19.5981 41.8241 19.95C43.7252 20.5833 45.5559 21.463 47.2458 22.5185C48.4075 23.2574 49.3581 24.2426 50.027 25.4389C50.5903 26.5648 50.8719 27.7963 50.8367 29.063C50.8719 30.7167 50.3791 32.3704 49.4637 33.7426C48.478 35.15 47.1049 36.2407 45.5207 36.8741C43.7956 37.613 41.6833 38 39.1485 38C37.529 38 35.9448 37.8593 34.3606 37.5426C33.1284 37.3315 31.8962 36.9444 30.7696 36.4167C30.5232 36.2759 30.3471 36.0296 30.3823 35.7482V29.6259C30.3823 29.5204 30.4175 29.3796 30.5232 29.3093C30.6288 29.2389 30.7344 29.2741 30.84 29.3444C32.213 30.1537 33.6564 30.7167 35.2055 31.0685C36.5433 31.4204 37.9515 31.5963 39.3597 31.5963C40.6975 31.5963 41.6481 31.4204 42.2818 31.1037C42.8451 30.8574 43.2323 30.2593 43.2323 29.6259C43.2323 29.1333 42.9507 28.6759 42.3874 28.2185C41.8241 27.7611 40.6623 27.2333 38.9373 26.5648C37.1418 25.9315 35.4871 25.087 33.9381 24.0315C32.8467 23.2574 31.9314 22.237 31.2625 21.0407C30.6992 19.9148 30.4175 18.6833 30.4527 17.4519C30.4527 15.9389 30.8752 14.4963 31.6497 13.1944C32.5299 11.787 33.8325 10.6611 35.3463 9.95741C37.001 9.11296 39.0781 8.72593 41.5777 8.72593C43.0211 8.72593 44.4997 8.83148 45.9432 9.04259C46.9993 9.18333 48.0203 9.46481 48.9708 9.85185C49.1117 9.88704 49.2525 10.0278 49.3229 10.1685C49.3581 10.3093 49.3933 10.45 49.3933 10.5907V16.3259C49.3933 16.4667 49.3229 16.6074 49.2173 16.6778C48.9004 16.7481 48.7244 16.7481 48.5836 16.6778V16.6778Z" fill="#1E1E1E"/>
</svg>
