<svg width="47" height="47" viewBox="0 0 47 47" fill="none" xmlns="http://www.w3.org/2000/svg">
<path d="M40.9262 0H27.0738C25.3762 0 24 1.34315 24 3V25C24 26.6569 25.3762 28 27.0738 28H40.9262C42.6238 28 44 26.6569 44 25V3C44 1.34315 42.6238 0 40.9262 0Z" fill="#1E1E1E"/>
<path d="M40.9262 0H27.0738C25.3762 0 24 1.34315 24 3V25C24 26.6569 25.3762 28 27.0738 28H40.9262C42.6238 28 44 26.6569 44 25V3C44 1.34315 42.6238 0 40.9262 0Z" fill="#1E1E1E"/>
<path d="M17.9262 0H4.07377C2.37617 0 1 1.34315 1 3V41C1 42.6569 2.37617 44 4.07377 44H17.9262C19.6238 44 21 42.6569 21 41V3C21 1.34315 19.6238 0 17.9262 0Z" fill="#1E1E1E"/>
<path d="M17.9262 0H4.07377C2.37617 0 1 1.34315 1 3V41C1 42.6569 2.37617 44 4.07377 44H17.9262C19.6238 44 21 42.6569 21 41V3C21 1.34315 19.6238 0 17.9262 0Z" fill="#1E1E1E"/>
</svg>
