<svg width="58" height="58" viewBox="0 0 58 58" fill="none" xmlns="http://www.w3.org/2000/svg">
<path d="M29.2515 4.34291e-05C17.837 -0.0197345 7.09335 6.71711 2.16273 17.3808L16.0267 17.4136V18.9227C11.7577 18.4114 12.1336 20.618 12.7379 22.9599L21.839 45.6627L28.5283 30.0554L25.4574 22.7412C24.342 20.7822 24.3184 18.6087 19.7551 18.8134L19.8192 17.4227L40.1527 17.4719V19.0303C37.7714 19.1694 34.9049 18.4344 36.4244 23.288L44.6483 44.7897L49.1439 32.2371C50.6161 26.9752 49.2306 21.9184 47.4812 16.9597C46.5083 13.6332 46.962 10.855 51.3231 9.75298C44.6664 2.98993 36.8117 0.0131514 29.2515 4.34291e-05ZM56.9062 19.8504L43.7234 54.0522C47.364 50.9139 51.0968 49.7715 55.6646 41.0878C58.7037 33.865 58.3909 27.1739 56.9062 19.8504ZM0.767355 20.4045C-0.519346 30.5014 -0.401637 33.4587 2.7835 41.7039C6.93537 49.6008 10.155 51.2646 14.7247 54.3621L0.767355 20.4045ZM29.7661 33.2158L19.9967 56.6768C26.8542 58.625 32.9901 58.3812 38.6071 56.2139L29.7661 33.2158Z" fill="#1E1E1E"/>
</svg>
