<svg width="36" height="54" viewBox="0 0 36 54" fill="none" xmlns="http://www.w3.org/2000/svg">
<path d="M36 27C36 31.9676 31.9707 35.9965 27.0026 35.9965C22.0346 35.9965 18.0053 31.9676 18.0053 27C18.0053 22.0324 22.0346 18.0035 27.0026 18.0035C31.9707 18.0035 36 22.0324 36 27ZM27.0026 18.0035C31.9707 18.0035 36 13.9746 36 9.00703C36 4.03945 31.9707 0 27.0026 0H8.99736C4.0293 0 0 4.02891 0 8.99648C0 13.9641 4.0293 17.993 8.99736 17.993C4.0293 18.0035 0 22.0324 0 27C0 31.9676 4.0293 35.9965 8.99736 35.9965C4.0293 35.9965 0 40.0254 0 45.0035C0 49.9816 4.0293 54 8.99736 54C13.9654 54 17.9947 49.9711 17.9947 45.0035V18.0035H27.0026Z" fill="#1E1E1E"/>
</svg>
