<svg width="56" height="65" viewBox="0 0 56 65" fill="none" xmlns="http://www.w3.org/2000/svg">
<path d="M0.00617799 2.15176L4.22481 56.1215C4.28814 56.932 4.83671 57.6231 5.61165 57.8687L27.8102 64.9067C28.2027 65.0311 28.6242 65.0311 29.0168 64.9067L51.2153 57.8687C51.9902 57.6231 52.5388 56.932 52.6021 56.1215L56.8207 2.15176C56.9115 0.991438 55.9944 0 54.8307 0H1.99639C0.832626 0 -0.0844019 0.991438 0.00617799 2.15176ZM46.0024 18.8968H18.5087L19.3385 26.5482H45.4044L43.6992 48.3611L28.4135 53.2074L13.1278 48.3611L12.237 36.9651H20.2601V42.555L28.6279 44.8008L36.9457 42.555L37.591 33.6463H11.9775L10.277 11.8905H46.5499L46.0024 18.8968Z" fill="#1E1E1E"/>
</svg>
