<svg width="63" height="62" viewBox="0 0 63 62" fill="none" xmlns="http://www.w3.org/2000/svg">
<path d="M31.4348 62C48.5556 62 62.4348 48.1208 62.4348 31C62.4348 13.8792 48.5556 0 31.4348 0C14.314 0 0.434814 13.8792 0.434814 31C0.434814 48.1208 14.314 62 31.4348 62Z" fill="#0F1110"/>
<path d="M49.957 33.4945V46.2751H42.5471V34.351C42.5471 31.357 41.4773 29.3124 38.7944 29.3124C36.747 29.3124 35.5307 30.6889 34.9936 32.0218C34.7985 32.4981 34.7482 33.1596 34.7482 33.8277V46.2746H27.3378C27.3378 46.2746 27.4373 26.0791 27.3378 23.9886H34.7488V27.1467C34.7339 27.1716 34.7129 27.1959 34.6996 27.2197H34.7488V27.1467C35.7335 25.6315 37.4897 23.4653 41.427 23.4653C46.3021 23.4653 49.957 26.6505 49.957 33.4945ZM19.5859 13.246C17.0511 13.246 15.3927 14.9099 15.3927 17.096C15.3927 19.2356 17.003 20.9476 19.4886 20.9476H19.5367C22.1212 20.9476 23.7282 19.2356 23.7282 17.096C23.679 14.9099 22.1212 13.246 19.5859 13.246ZM15.8331 46.2751H23.2408V23.9886H15.8331V46.2751Z" fill="#D6F6F1"/>
</svg>
