<svg width="52" height="52" viewBox="0 0 52 52" fill="none" xmlns="http://www.w3.org/2000/svg">
<g clip-path="url(#clip0_7_167)">
<mask id="mask0_7_167" style="mask-type:alpha" maskUnits="userSpaceOnUse" x="-3" y="0" width="52" height="53">
<path d="M33.8741 51.7779C34.2879 51.9401 34.7304 52.0149 35.1742 51.9978C35.618 51.9806 36.0535 51.8719 36.4537 51.6783L47.1596 46.5002C47.711 46.2333 48.1762 45.8154 48.5018 45.2946C48.8274 44.7737 49.0001 44.1711 49 43.5559V8.44445C49 7.82934 48.8274 7.22671 48.5018 6.70589C48.1762 6.18507 47.711 5.76721 47.1596 5.50039L36.4539 0.322097C35.849 0.029495 35.1685 -0.0668462 34.5067 0.046408C33.8449 0.159662 33.2345 0.47691 32.7599 0.954241L12.2647 19.7495L3.33715 12.9377C2.93445 12.6304 2.43744 12.4746 1.93236 12.4972C1.42727 12.5197 0.945992 12.7193 0.572013 13.0613L-2.2912 15.6795C-3.23535 16.5426 -3.23637 18.0357 -2.29365 18.9002L5.44852 26.0002L-2.29365 33.0999C-3.23637 33.9647 -3.23535 35.4575 -2.2912 36.3209L0.572013 38.9388C0.945967 39.2809 1.42724 39.4805 1.93232 39.5031C2.4374 39.5257 2.93442 39.3699 3.33715 39.0627L12.2647 32.2507L32.7599 51.0459C33.0768 51.365 33.4562 51.6142 33.8741 51.7779V51.7779ZM36.0079 14.1344L20.4567 26.0002L36.0079 37.8658V14.1344Z" fill="#0065A9"/>
</mask>
<g mask="url(#mask0_7_167)">
<path d="M47.1914 5.50863L36.4772 0.323164C35.872 0.0303259 35.1914 -0.0662206 34.5293 0.0468846C33.8672 0.15999 33.2564 0.477154 32.7815 0.954488L-2.29324 33.1002C-3.23657 33.965 -3.23534 35.4578 -2.29079 36.3211L0.574262 38.9391C0.948548 39.2812 1.43012 39.4808 1.9355 39.5034C2.44087 39.5261 2.93819 39.3702 3.34123 39.0629L45.5793 6.85388C46.9963 5.77346 49.0316 6.78932 49.0316 8.57711V8.45208C49.0316 7.83709 48.8589 7.2346 48.5334 6.71389C48.2078 6.19319 47.7427 5.77542 47.1914 5.50863V5.50863Z" fill="#1E1E1E"/>
</g>
<mask id="mask1_7_167" style="mask-type:alpha" maskUnits="userSpaceOnUse" x="-3" y="0" width="52" height="53">
<path d="M33.8741 51.7779C34.2879 51.9401 34.7304 52.0149 35.1742 51.9978C35.618 51.9806 36.0535 51.8719 36.4537 51.6783L47.1596 46.5002C47.711 46.2333 48.1762 45.8154 48.5018 45.2946C48.8274 44.7737 49.0001 44.1711 49 43.5559V8.44445C49 7.82934 48.8274 7.22671 48.5018 6.70589C48.1762 6.18507 47.711 5.76721 47.1596 5.50039L36.4539 0.322097C35.849 0.029495 35.1685 -0.0668462 34.5067 0.046408C33.8449 0.159662 33.2345 0.47691 32.7599 0.954241L12.2647 19.7495L3.33715 12.9377C2.93445 12.6304 2.43744 12.4746 1.93236 12.4972C1.42727 12.5197 0.945992 12.7193 0.572013 13.0613L-2.2912 15.6795C-3.23535 16.5426 -3.23637 18.0357 -2.29365 18.9002L5.44852 26.0002L-2.29365 33.0999C-3.23637 33.9647 -3.23535 35.4575 -2.2912 36.3209L0.572013 38.9388C0.945967 39.2809 1.42724 39.4805 1.93232 39.5031C2.4374 39.5257 2.93442 39.3699 3.33715 39.0627L12.2647 32.2507L32.7599 51.0459C33.0768 51.365 33.4562 51.6142 33.8741 51.7779V51.7779ZM36.0079 14.1344L20.4567 26.0002L36.0079 37.8658V14.1344Z" fill="#007ACC"/>
</mask>
<g mask="url(#mask1_7_167)">
<path d="M47.1914 46.4916L36.4771 51.6771C35.872 51.9699 35.1913 52.0664 34.5292 51.9533C33.8672 51.8402 33.2564 51.523 32.7815 51.0458L-2.29327 18.9001C-3.2366 18.0355 -3.23537 16.5425 -2.29082 15.6793L0.574231 13.0612C0.948542 12.7191 1.43013 12.5195 1.9355 12.4969C2.44088 12.4743 2.93818 12.6302 3.3412 12.9376L45.5792 45.1464C46.9963 46.2268 49.0316 45.2109 49.0316 43.4229V43.5482C49.0315 44.1631 48.8588 44.7656 48.5333 45.2863C48.2078 45.807 47.7426 46.2248 47.1914 46.4916V46.4916Z" fill="#0F1110"/>
</g>
<mask id="mask2_7_167" style="mask-type:alpha" maskUnits="userSpaceOnUse" x="-3" y="0" width="52" height="53">
<path d="M33.8741 51.7779C34.2879 51.9401 34.7304 52.0149 35.1742 51.9978C35.618 51.9806 36.0535 51.8719 36.4537 51.6783L47.1596 46.5002C47.711 46.2333 48.1762 45.8154 48.5018 45.2946C48.8274 44.7737 49.0001 44.1711 49 43.5559V8.44445C49 7.82934 48.8274 7.22671 48.5018 6.70589C48.1762 6.18507 47.711 5.76721 47.1596 5.50039L36.4539 0.322097C35.849 0.029495 35.1685 -0.0668462 34.5067 0.046408C33.8449 0.159662 33.2345 0.47691 32.7599 0.954241L12.2647 19.7495L3.33715 12.9377C2.93445 12.6304 2.43744 12.4746 1.93236 12.4972C1.42727 12.5197 0.945992 12.7193 0.572013 13.0613L-2.2912 15.6795C-3.23535 16.5426 -3.23637 18.0357 -2.29365 18.9002L5.44852 26.0002L-2.29365 33.0999C-3.23637 33.9647 -3.23535 35.4575 -2.2912 36.3209L0.572013 38.9388C0.945967 39.2809 1.42724 39.4805 1.93232 39.5031C2.4374 39.5257 2.93442 39.3699 3.33715 39.0627L12.2647 32.2507L32.7599 51.0459C33.0768 51.365 33.4562 51.6142 33.8741 51.7779V51.7779ZM36.0079 14.1344L20.4567 26.0002L36.0079 37.8658V14.1344Z" fill="#1F9CF0"/>
</mask>
<g mask="url(#mask2_7_167)">
<path d="M36.4435 51.6815C35.8382 51.9741 35.1574 52.0704 34.4953 51.9572C33.8332 51.8439 33.2224 51.5267 32.7475 51.0493C33.9467 52.2546 35.9975 51.4009 35.9975 49.6959V2.31069C35.9975 0.605701 33.9467 -0.248021 32.7475 0.957439C33.2224 0.480067 33.8332 0.162822 34.4953 0.0495755C35.1574 -0.0636709 35.8382 0.0326768 36.4435 0.325295L47.1559 5.50359C47.7075 5.77022 48.173 6.18801 48.4987 6.70885C48.8245 7.2297 48.9973 7.83242 48.9973 8.44765V43.5593C48.9973 44.8148 48.2816 45.9594 47.1559 46.5034L36.4435 51.6815Z" fill="#1E1E1E"/>
</g>
<mask id="mask3_7_167" style="mask-type:alpha" maskUnits="userSpaceOnUse" x="-3" y="0" width="52" height="53">
<path d="M33.8741 51.7779C34.2879 51.9401 34.7304 52.0149 35.1742 51.9978C35.618 51.9806 36.0535 51.8719 36.4537 51.6783L47.1596 46.5002C47.711 46.2333 48.1762 45.8154 48.5018 45.2946C48.8274 44.7737 49.0001 44.1711 49 43.5559V8.44445C49 7.82934 48.8274 7.22671 48.5018 6.70589C48.1762 6.18507 47.711 5.76721 47.1596 5.50039L36.4539 0.322097C35.849 0.029495 35.1685 -0.0668462 34.5067 0.046408C33.8449 0.159662 33.2345 0.47691 32.7599 0.954241L12.2647 19.7495L3.33715 12.9377C2.93445 12.6304 2.43744 12.4746 1.93236 12.4972C1.42727 12.5197 0.945992 12.7193 0.572013 13.0613L-2.2912 15.6795C-3.23535 16.5426 -3.23637 18.0357 -2.29365 18.9002L5.44852 26.0002L-2.29365 33.0999C-3.23637 33.9647 -3.23535 35.4575 -2.2912 36.3209L0.572013 38.9388C0.945967 39.2809 1.42724 39.4805 1.93232 39.5031C2.4374 39.5257 2.93442 39.3699 3.33715 39.0627L12.2647 32.2507L32.7599 51.0459C33.0768 51.365 33.4562 51.6142 33.8741 51.7779V51.7779ZM36.0079 14.1344L20.4567 26.0002L36.0079 37.8658V14.1344Z" fill="url(#paint0_linear_7_167)" fill-opacity="0.25"/>
</mask>
<g mask="url(#mask3_7_167)">
<path d="M33.8741 51.7778C34.2879 51.9399 34.7304 52.0148 35.1742 51.9976C35.618 51.9805 36.0535 51.8718 36.4537 51.6782L47.1594 46.4999C47.7108 46.2331 48.1761 45.8153 48.5017 45.2944C48.8273 44.7736 49 44.1709 48.9999 43.5558V8.44434C49 7.82924 48.8273 7.22661 48.5018 6.70579C48.1762 6.18496 47.711 5.7671 47.1596 5.50028L36.4535 0.321786C35.8485 0.0292313 35.1681 -0.0670844 34.5064 0.0461688C33.8446 0.159422 33.2342 0.476643 32.7597 0.95393L12.2647 19.7494L3.33712 12.9376C2.93441 12.6303 2.43741 12.4745 1.93233 12.497C1.42724 12.5196 0.945961 12.7192 0.571983 13.0612L-2.29124 15.6794C-3.23538 16.5425 -3.2364 18.0356 -2.29368 18.9001L5.44849 26.0001L-2.29368 33.0998C-3.2364 33.9646 -3.23538 35.4574 -2.29124 36.3208L0.571983 38.9387C0.945937 39.2808 1.42721 39.4804 1.93229 39.503C2.43737 39.5256 2.93439 39.3698 3.33712 39.0625L12.2647 32.2506L32.7597 51.0458C33.0766 51.3649 33.4561 51.6141 33.8741 51.7778V51.7778ZM36.0079 14.1341L20.4567 26.0001L36.0079 37.8657V14.1341Z" fill="url(#paint1_linear_7_167)" fill-opacity="0.25"/>
</g>
</g>
<defs>
<linearGradient id="paint0_linear_7_167" x1="23.0001" y1="8.02749e-05" x2="23.0001" y2="52.0002" gradientUnits="userSpaceOnUse">
<stop stop-color="white"/>
<stop offset="1" stop-color="white" stop-opacity="0"/>
</linearGradient>
<linearGradient id="paint1_linear_7_167" x1="23" y1="-2.54936e-05" x2="23" y2="52.0001" gradientUnits="userSpaceOnUse">
<stop stop-color="white"/>
<stop offset="1" stop-color="white" stop-opacity="0"/>
</linearGradient>
<clipPath id="clip0_7_167">
<rect width="52" height="52" fill="white"/>
</clipPath>
</defs>
</svg>
