<svg width="34" height="36" viewBox="0 0 34 36" fill="none" xmlns="http://www.w3.org/2000/svg">
<path d="M24.5011 16.1564L24.5328 16.6226H25H29.8833V16.1226L30.3797 16.0622C30.0606 13.4394 29.0431 10.9581 27.4388 8.89549C25.8345 6.8327 23.7059 5.26917 21.289 4.38155L19.8239 3.84345L20.7037 5.13271C22.9183 8.3784 24.2322 12.1908 24.5011 16.1564ZM22.1642 19.6194L22.2193 19.0696H21.6667H11.8V19.5696L11.3015 19.6088C11.6454 23.9727 13.4038 28.0913 16.2954 31.2968L16.6673 31.7091L17.0385 31.2962C19.9291 28.0804 21.7272 23.9815 22.1642 19.6194ZM11.3021 16.077L11.2521 16.6226H11.8H21.6667H22.2158L22.1645 16.0759C21.7547 11.7091 19.9516 7.60483 17.036 4.41041L16.66 3.99847L16.2914 4.41706C13.4496 7.64447 11.6997 11.7364 11.3021 16.077ZM8.45 16.6226H8.91362L8.94858 16.1603C9.25004 12.1736 10.5856 8.34615 12.813 5.08096L12.4 4.79919L12.2347 4.32729C9.77508 5.18876 7.60168 6.74734 5.96135 8.82266C4.32113 10.8978 3.27958 13.4064 2.95372 16.0617L2.88489 16.6226H3.45H8.45ZM8.94887 19.5359L8.91741 19.0696H8.45H3.45V19.5696L2.95375 19.6307C3.2798 22.2785 4.31761 24.7804 5.95118 26.8518C7.58487 28.9232 9.74937 30.4815 12.2001 31.3472L13.6503 31.8594L12.7786 30.5923C10.5432 27.343 9.21738 23.5171 8.94887 19.5359ZM25 19.0696H24.5373L24.5015 19.5309C24.1927 23.5079 22.8515 27.3237 20.621 30.5757L21.0333 30.8585L21.2011 31.3295C23.643 30.4597 25.7986 28.9017 27.4257 26.8341C29.0526 24.7665 30.0867 22.2714 30.4129 19.6309L30.4822 19.0696H29.9167H25ZM31.6005 11.4364C32.4143 13.4681 32.8333 15.6461 32.8333 17.8461C32.8333 22.2898 31.1261 26.5482 28.0924 29.6855C25.0591 32.8221 20.9488 34.5811 16.6667 34.5811C12.3845 34.5811 8.27421 32.8221 5.24098 29.6855C2.2072 26.5482 0.5 22.2898 0.5 17.8461C0.5 13.4024 2.2072 9.1439 5.24098 6.00667C8.27421 2.87001 12.3845 1.11108 16.6667 1.11108C18.7873 1.11108 20.8876 1.543 22.8479 2.38263C24.8081 3.22228 26.5903 4.45344 28.0924 6.00667C29.5944 7.55994 30.7867 9.40484 31.6005 11.4364Z" fill="white" stroke="white"/>
</svg>
